<svg width="154" height="15" viewBox="0 0 154 15" fill="none" xmlns="http://www.w3.org/2000/svg">
<path d="M3.5625 11.5455V3.86364H5.09091V11.5455H3.5625ZM0.488636 8.46591V6.94318H8.17045V8.46591H0.488636ZM10.777 13.5L15.8565 3.45455V3.36932H9.98153V1.86364H17.6747V3.42045L12.6122 13.5H10.777ZM24.402 7.68182C24.402 6.25758 24.5895 4.94697 24.9645 3.75C25.3395 2.55303 25.8868 1.44886 26.6065 0.4375H28.1634C27.883 0.8125 27.6217 1.27273 27.3793 1.81818C27.1368 2.36364 26.9247 2.96212 26.7429 3.61364C26.5611 4.26136 26.419 4.93371 26.3168 5.63068C26.2145 6.32386 26.1634 7.00758 26.1634 7.68182C26.1634 8.58333 26.2524 9.49621 26.4304 10.4205C26.6084 11.3447 26.849 12.2027 27.152 12.9943C27.455 13.786 27.7921 14.4318 28.1634 14.9318H26.6065C25.8868 13.9205 25.3395 12.8163 24.9645 11.6193C24.5895 10.4223 24.402 9.10985 24.402 7.68182ZM33.8011 1.70455C34.3201 1.70833 34.8314 1.80303 35.3352 1.98864C35.839 2.17424 36.2936 2.47727 36.6989 2.89773C37.108 3.31818 37.4337 3.88636 37.6761 4.60227C37.9223 5.31439 38.0473 6.20076 38.0511 7.26136C38.0511 8.2803 37.9489 9.1875 37.7443 9.98295C37.5398 10.7746 37.2462 11.4432 36.8636 11.9886C36.4848 12.5341 36.0246 12.9489 35.483 13.233C34.9413 13.517 34.3314 13.6591 33.6534 13.6591C32.9602 13.6591 32.3447 13.5227 31.8068 13.25C31.2689 12.9773 30.8314 12.6004 30.4943 12.1193C30.1572 11.6345 29.947 11.0777 29.8636 10.4489H31.5966C31.7102 10.9489 31.9413 11.3542 32.2898 11.6648C32.642 11.9716 33.0966 12.125 33.6534 12.125C34.5057 12.125 35.1705 11.7538 35.6477 11.0114C36.125 10.2652 36.3655 9.22348 36.3693 7.88636H36.2784C36.0814 8.21212 35.8352 8.49242 35.5398 8.72727C35.2481 8.96212 34.9205 9.14394 34.5568 9.27273C34.1932 9.40152 33.8049 9.46591 33.392 9.46591C32.7216 9.46591 32.1117 9.30114 31.5625 8.97159C31.0133 8.64205 30.5758 8.18939 30.25 7.61364C29.9242 7.03788 29.7614 6.38068 29.7614 5.64205C29.7614 4.9072 29.928 4.24053 30.2614 3.64205C30.5985 3.04356 31.0682 2.57008 31.6705 2.22159C32.2765 1.86932 32.9867 1.69697 33.8011 1.70455ZM33.8068 3.18182C33.3636 3.18182 32.964 3.29167 32.608 3.51136C32.2557 3.72727 31.9773 4.02083 31.7727 4.39205C31.5682 4.75947 31.4659 5.16856 31.4659 5.61932C31.4659 6.07008 31.5644 6.47917 31.7614 6.84659C31.9621 7.21023 32.2348 7.5 32.5795 7.71591C32.928 7.92803 33.3258 8.03409 33.7727 8.03409C34.1061 8.03409 34.4167 7.9697 34.7045 7.84091C34.9924 7.71212 35.2443 7.53409 35.4602 7.30682C35.6761 7.07576 35.8447 6.81439 35.9659 6.52273C36.0871 6.23106 36.1477 5.92424 36.1477 5.60227C36.1477 5.17424 36.0455 4.77652 35.8409 4.40909C35.6402 4.04167 35.3636 3.74621 35.0114 3.52273C34.6591 3.29545 34.2576 3.18182 33.8068 3.18182ZM44.1662 13.6591C43.6473 13.6515 43.1359 13.5568 42.6321 13.375C42.1321 13.1932 41.6776 12.8902 41.2685 12.4659C40.8594 12.0417 40.5317 11.4716 40.2855 10.7557C40.0431 10.0398 39.9219 9.14583 39.9219 8.07386C39.9219 7.05871 40.0223 6.1572 40.223 5.36932C40.4276 4.58144 40.7211 3.91667 41.1037 3.375C41.4863 2.82955 41.9484 2.41477 42.4901 2.13068C43.0317 1.84659 43.6397 1.70455 44.3139 1.70455C45.0071 1.70455 45.6226 1.84091 46.1605 2.11364C46.6984 2.38636 47.134 2.76326 47.4673 3.24432C47.8045 3.72538 48.0185 4.27273 48.1094 4.88636H46.3764C46.259 4.40152 46.026 4.00568 45.6776 3.69886C45.3291 3.39205 44.8745 3.23864 44.3139 3.23864C43.4616 3.23864 42.7969 3.60985 42.3196 4.35227C41.8461 5.0947 41.6075 6.12689 41.6037 7.44886H41.6889C41.8897 7.11932 42.1359 6.83901 42.4276 6.60795C42.723 6.37311 43.0526 6.19318 43.4162 6.06818C43.7836 5.93939 44.17 5.875 44.5753 5.875C45.2495 5.875 45.8594 6.03977 46.4048 6.36932C46.9541 6.69508 47.3916 7.14583 47.7173 7.72159C48.0431 8.29735 48.206 8.95644 48.206 9.69886C48.206 10.4413 48.0374 11.1136 47.7003 11.7159C47.367 12.3182 46.8973 12.7955 46.2912 13.1477C45.6851 13.4962 44.9768 13.6667 44.1662 13.6591ZM44.1605 12.1818C44.6075 12.1818 45.0071 12.072 45.3594 11.8523C45.7116 11.6326 45.9901 11.3371 46.1946 10.9659C46.3991 10.5947 46.5014 10.1799 46.5014 9.72159C46.5014 9.27462 46.401 8.86742 46.2003 8.5C46.0033 8.13258 45.7306 7.84091 45.3821 7.625C45.0374 7.40909 44.6435 7.30114 44.2003 7.30114C43.8632 7.30114 43.5507 7.36553 43.2628 7.49432C42.9787 7.62311 42.7287 7.80114 42.5128 8.02841C42.2969 8.25568 42.1264 8.51705 42.0014 8.8125C41.8802 9.10417 41.8196 9.41288 41.8196 9.73864C41.8196 10.1742 41.92 10.5777 42.1207 10.9489C42.3253 11.3201 42.6037 11.6193 42.956 11.8466C43.312 12.0701 43.7135 12.1818 44.1605 12.1818ZM54.1165 13.6591C53.4044 13.6591 52.7642 13.5227 52.196 13.25C51.6316 12.9735 51.1809 12.5947 50.8438 12.1136C50.5066 11.6326 50.3267 11.0833 50.304 10.4659H52.0085C52.0502 10.9659 52.2718 11.3769 52.6733 11.6989C53.0748 12.0208 53.5559 12.1818 54.1165 12.1818C54.5634 12.1818 54.9593 12.0795 55.304 11.875C55.6525 11.6667 55.9252 11.3807 56.1222 11.017C56.3229 10.6534 56.4233 10.2386 56.4233 9.77273C56.4233 9.29924 56.321 8.87689 56.1165 8.50568C55.9119 8.13447 55.6297 7.8428 55.2699 7.63068C54.9138 7.41856 54.5047 7.31061 54.0426 7.30682C53.6903 7.30682 53.3362 7.36742 52.9801 7.48864C52.6241 7.60985 52.3362 7.76894 52.1165 7.96591L50.5085 7.72727L51.1619 1.86364H57.5597V3.36932H52.6222L52.2528 6.625H52.321C52.5483 6.4053 52.8494 6.22159 53.2244 6.07386C53.6032 5.92614 54.0085 5.85227 54.4403 5.85227C55.1487 5.85227 55.7794 6.02083 56.3324 6.35795C56.8892 6.69508 57.3267 7.1553 57.6449 7.73864C57.9669 8.31818 58.1259 8.98485 58.1222 9.73864C58.1259 10.4924 57.9555 11.1648 57.6108 11.7557C57.2699 12.3466 56.7964 12.8125 56.1903 13.1534C55.5881 13.4905 54.8968 13.6591 54.1165 13.6591ZM63.4872 7.68182C63.4872 9.10985 63.2997 10.4223 62.9247 11.6193C62.5497 12.8163 62.0024 13.9205 61.2827 14.9318H59.7259C60.0062 14.5568 60.2675 14.0966 60.5099 13.5511C60.7524 13.0057 60.9645 12.4091 61.1463 11.7614C61.3281 11.1098 61.4702 10.4356 61.5724 9.73864C61.6747 9.04167 61.7259 8.35606 61.7259 7.68182C61.7259 6.78409 61.6368 5.87311 61.4588 4.94886C61.2808 4.02462 61.0402 3.16667 60.7372 2.375C60.4342 1.58333 60.0971 0.9375 59.7259 0.4375H61.2827C62.0024 1.44886 62.5497 2.55303 62.9247 3.75C63.2997 4.94697 63.4872 6.25758 63.4872 7.68182ZM74.5298 13.6932C73.6321 13.6894 72.8651 13.4527 72.2287 12.983C71.5923 12.5133 71.1056 11.8295 70.7685 10.9318C70.4313 10.0341 70.2628 8.95265 70.2628 7.6875C70.2628 6.42614 70.4313 5.34848 70.7685 4.45455C71.1094 3.56061 71.598 2.87879 72.2344 2.40909C72.8745 1.93939 73.6397 1.70455 74.5298 1.70455C75.42 1.70455 76.1832 1.94129 76.8196 2.41477C77.456 2.88447 77.9427 3.56629 78.2798 4.46023C78.6207 5.35038 78.7912 6.42614 78.7912 7.6875C78.7912 8.95644 78.6226 10.0398 78.2855 10.9375C77.9484 11.8314 77.4616 12.5152 76.8253 12.9886C76.1889 13.4583 75.4238 13.6932 74.5298 13.6932ZM74.5298 12.1761C75.3177 12.1761 75.9332 11.7917 76.3764 11.0227C76.8234 10.2538 77.0469 9.14205 77.0469 7.6875C77.0469 6.72159 76.9446 5.9053 76.7401 5.23864C76.5393 4.56818 76.2495 4.06061 75.8707 3.71591C75.4957 3.36742 75.0488 3.19318 74.5298 3.19318C73.7457 3.19318 73.1302 3.57954 72.6832 4.35227C72.2363 5.125 72.0109 6.23674 72.0071 7.6875C72.0071 8.6572 72.1075 9.47727 72.3082 10.1477C72.5128 10.8144 72.8026 11.3201 73.1776 11.6648C73.5526 12.0057 74.0033 12.1761 74.5298 12.1761ZM84.7386 13.6591C83.9242 13.6591 83.2045 13.5189 82.5795 13.2386C81.9583 12.9583 81.4716 12.572 81.1193 12.0795C80.767 11.5871 80.5928 11.0265 80.5966 10.3977C80.5928 9.9053 80.6932 9.45265 80.8977 9.03977C81.1061 8.62311 81.3883 8.27652 81.7443 8C82.1004 7.7197 82.4981 7.54167 82.9375 7.46591V7.39773C82.358 7.25758 81.8939 6.94697 81.5455 6.46591C81.197 5.98485 81.0246 5.43182 81.0284 4.80682C81.0246 4.21212 81.1818 3.68182 81.5 3.21591C81.822 2.74621 82.2633 2.37689 82.8239 2.10795C83.3845 1.83901 84.0227 1.70455 84.7386 1.70455C85.447 1.70455 86.0795 1.84091 86.6364 2.11364C87.197 2.38258 87.6383 2.75189 87.9602 3.22159C88.2822 3.6875 88.4451 4.21591 88.4489 4.80682C88.4451 5.43182 88.267 5.98485 87.9148 6.46591C87.5625 6.94697 87.1042 7.25758 86.5398 7.39773V7.46591C86.9754 7.54167 87.3674 7.7197 87.7159 8C88.0682 8.27652 88.3485 8.62311 88.5568 9.03977C88.7689 9.45265 88.8769 9.9053 88.8807 10.3977C88.8769 11.0265 88.6989 11.5871 88.3466 12.0795C87.9943 12.572 87.5057 12.9583 86.8807 13.2386C86.2595 13.5189 85.5455 13.6591 84.7386 13.6591ZM84.7386 12.2216C85.2197 12.2216 85.6364 12.142 85.9886 11.983C86.3409 11.8201 86.6136 11.5947 86.8068 11.3068C87 11.0152 87.0985 10.6742 87.1023 10.2841C87.0985 9.87879 86.9924 9.52083 86.7841 9.21023C86.5795 8.89962 86.3011 8.6553 85.9489 8.47727C85.5966 8.29924 85.1932 8.21023 84.7386 8.21023C84.2803 8.21023 83.8731 8.29924 83.517 8.47727C83.161 8.6553 82.8807 8.89962 82.6761 9.21023C82.4716 9.52083 82.3712 9.87879 82.375 10.2841C82.3712 10.6742 82.464 11.0152 82.6534 11.3068C82.8466 11.5947 83.1212 11.8201 83.4773 11.983C83.8333 12.142 84.2538 12.2216 84.7386 12.2216ZM84.7386 6.80682C85.125 6.80682 85.4678 6.72917 85.767 6.57386C86.0663 6.41856 86.3011 6.20265 86.4716 5.92614C86.6458 5.64962 86.7348 5.32576 86.7386 4.95455C86.7348 4.59091 86.6477 4.27273 86.4773 4C86.3106 3.72727 86.0777 3.51705 85.7784 3.36932C85.4792 3.2178 85.1326 3.14205 84.7386 3.14205C84.3371 3.14205 83.9848 3.2178 83.6818 3.36932C83.3826 3.51705 83.1496 3.72727 82.983 4C82.8163 4.27273 82.7348 4.59091 82.7386 4.95455C82.7348 5.32576 82.8182 5.64962 82.9886 5.92614C83.1591 6.20265 83.3939 6.41856 83.6932 6.57386C83.9962 6.72917 84.3447 6.80682 84.7386 6.80682ZM90.6719 11.2273V9.80682L95.7003 1.86364H96.8196V3.95455H96.1094L92.5128 9.64773V9.73864H99.4048V11.2273H90.6719ZM96.1889 13.5V10.7955L96.2003 10.1477V1.86364H97.8651V13.5H96.1889ZM106.55 6.94318V8.42045H101.391V6.94318H106.55ZM108.322 13.5V12.2273L112.26 8.14773C112.68 7.70455 113.027 7.31629 113.3 6.98295C113.576 6.64583 113.783 6.32576 113.919 6.02273C114.055 5.7197 114.124 5.39773 114.124 5.05682C114.124 4.67045 114.033 4.33712 113.851 4.05682C113.669 3.77273 113.421 3.55492 113.107 3.40341C112.792 3.24811 112.438 3.17045 112.044 3.17045C111.627 3.17045 111.264 3.25568 110.953 3.42614C110.643 3.59659 110.404 3.83712 110.237 4.14773C110.071 4.45833 109.987 4.82197 109.987 5.23864H108.311C108.311 4.5303 108.474 3.91098 108.8 3.38068C109.125 2.85038 109.572 2.43939 110.141 2.14773C110.709 1.85227 111.355 1.70455 112.078 1.70455C112.809 1.70455 113.453 1.85038 114.01 2.14205C114.571 2.42992 115.008 2.82386 115.322 3.32386C115.637 3.82008 115.794 4.38068 115.794 5.00568C115.794 5.4375 115.713 5.85985 115.55 6.27273C115.391 6.68561 115.112 7.14583 114.714 7.65341C114.317 8.1572 113.764 8.76894 113.055 9.48864L110.743 11.9091V11.9943H115.982V13.5H108.322ZM122.004 1.70455C122.523 1.70833 123.035 1.80303 123.538 1.98864C124.042 2.17424 124.497 2.47727 124.902 2.89773C125.311 3.31818 125.637 3.88636 125.879 4.60227C126.125 5.31439 126.25 6.20076 126.254 7.26136C126.254 8.2803 126.152 9.1875 125.947 9.98295C125.743 10.7746 125.449 11.4432 125.067 11.9886C124.688 12.5341 124.228 12.9489 123.686 13.233C123.144 13.517 122.535 13.6591 121.857 13.6591C121.163 13.6591 120.548 13.5227 120.01 13.25C119.472 12.9773 119.035 12.6004 118.697 12.1193C118.36 11.6345 118.15 11.0777 118.067 10.4489H119.8C119.913 10.9489 120.144 11.3542 120.493 11.6648C120.845 11.9716 121.3 12.125 121.857 12.125C122.709 12.125 123.374 11.7538 123.851 11.0114C124.328 10.2652 124.569 9.22348 124.572 7.88636H124.482C124.285 8.21212 124.038 8.49242 123.743 8.72727C123.451 8.96212 123.124 9.14394 122.76 9.27273C122.396 9.40152 122.008 9.46591 121.595 9.46591C120.925 9.46591 120.315 9.30114 119.766 8.97159C119.216 8.64205 118.779 8.18939 118.453 7.61364C118.127 7.03788 117.964 6.38068 117.964 5.64205C117.964 4.9072 118.131 4.24053 118.464 3.64205C118.802 3.04356 119.271 2.57008 119.874 2.22159C120.48 1.86932 121.19 1.69697 122.004 1.70455ZM122.01 3.18182C121.567 3.18182 121.167 3.29167 120.811 3.51136C120.459 3.72727 120.18 4.02083 119.976 4.39205C119.771 4.75947 119.669 5.16856 119.669 5.61932C119.669 6.07008 119.768 6.47917 119.964 6.84659C120.165 7.21023 120.438 7.5 120.783 7.71591C121.131 7.92803 121.529 8.03409 121.976 8.03409C122.309 8.03409 122.62 7.9697 122.908 7.84091C123.196 7.71212 123.447 7.53409 123.663 7.30682C123.879 7.07576 124.048 6.81439 124.169 6.52273C124.29 6.23106 124.351 5.92424 124.351 5.60227C124.351 5.17424 124.249 4.77652 124.044 4.40909C123.843 4.04167 123.567 3.74621 123.214 3.52273C122.862 3.29545 122.461 3.18182 122.01 3.18182ZM133.472 6.94318V8.42045H128.312V6.94318H133.472ZM135.244 13.5V12.2273L139.182 8.14773C139.602 7.70455 139.949 7.31629 140.222 6.98295C140.498 6.64583 140.705 6.32576 140.841 6.02273C140.977 5.7197 141.045 5.39773 141.045 5.05682C141.045 4.67045 140.955 4.33712 140.773 4.05682C140.591 3.77273 140.343 3.55492 140.028 3.40341C139.714 3.24811 139.36 3.17045 138.966 3.17045C138.549 3.17045 138.186 3.25568 137.875 3.42614C137.564 3.59659 137.326 3.83712 137.159 4.14773C136.992 4.45833 136.909 4.82197 136.909 5.23864H135.233C135.233 4.5303 135.396 3.91098 135.722 3.38068C136.047 2.85038 136.494 2.43939 137.062 2.14773C137.631 1.85227 138.277 1.70455 139 1.70455C139.731 1.70455 140.375 1.85038 140.932 2.14205C141.492 2.42992 141.93 2.82386 142.244 3.32386C142.559 3.82008 142.716 4.38068 142.716 5.00568C142.716 5.4375 142.634 5.85985 142.472 6.27273C142.313 6.68561 142.034 7.14583 141.636 7.65341C141.239 8.1572 140.686 8.76894 139.977 9.48864L137.665 11.9091V11.9943H142.903V13.5H135.244ZM148.926 1.70455C149.445 1.70833 149.956 1.80303 150.46 1.98864C150.964 2.17424 151.419 2.47727 151.824 2.89773C152.233 3.31818 152.559 3.88636 152.801 4.60227C153.047 5.31439 153.172 6.20076 153.176 7.26136C153.176 8.2803 153.074 9.1875 152.869 9.98295C152.665 10.7746 152.371 11.4432 151.989 11.9886C151.61 12.5341 151.15 12.9489 150.608 13.233C150.066 13.517 149.456 13.6591 148.778 13.6591C148.085 13.6591 147.47 13.5227 146.932 13.25C146.394 12.9773 145.956 12.6004 145.619 12.1193C145.282 11.6345 145.072 11.0777 144.989 10.4489H146.722C146.835 10.9489 147.066 11.3542 147.415 11.6648C147.767 11.9716 148.222 12.125 148.778 12.125C149.631 12.125 150.295 11.7538 150.773 11.0114C151.25 10.2652 151.491 9.22348 151.494 7.88636H151.403C151.206 8.21212 150.96 8.49242 150.665 8.72727C150.373 8.96212 150.045 9.14394 149.682 9.27273C149.318 9.40152 148.93 9.46591 148.517 9.46591C147.847 9.46591 147.237 9.30114 146.688 8.97159C146.138 8.64205 145.701 8.18939 145.375 7.61364C145.049 7.03788 144.886 6.38068 144.886 5.64205C144.886 4.9072 145.053 4.24053 145.386 3.64205C145.723 3.04356 146.193 2.57008 146.795 2.22159C147.402 1.86932 148.112 1.69697 148.926 1.70455ZM148.932 3.18182C148.489 3.18182 148.089 3.29167 147.733 3.51136C147.381 3.72727 147.102 4.02083 146.898 4.39205C146.693 4.75947 146.591 5.16856 146.591 5.61932C146.591 6.07008 146.689 6.47917 146.886 6.84659C147.087 7.21023 147.36 7.5 147.705 7.71591C148.053 7.92803 148.451 8.03409 148.898 8.03409C149.231 8.03409 149.542 7.9697 149.83 7.84091C150.117 7.71212 150.369 7.53409 150.585 7.30682C150.801 7.07576 150.97 6.81439 151.091 6.52273C151.212 6.23106 151.273 5.92424 151.273 5.60227C151.273 5.17424 151.17 4.77652 150.966 4.40909C150.765 4.04167 150.489 3.74621 150.136 3.52273C149.784 3.29545 149.383 3.18182 148.932 3.18182Z" fill="white"/>
</svg>
