<svg width="69" height="14" viewBox="0 0 69 14" fill="none" xmlns="http://www.w3.org/2000/svg">
<path d="M10.5 6C10.5 9.5 6 12.5 6 12.5C6 12.5 1.5 9.5 1.5 6C1.5 4.80653 1.97411 3.66193 2.81802 2.81802C3.66193 1.97411 4.80653 1.5 6 1.5C7.19347 1.5 8.33807 1.97411 9.18198 2.81802C10.0259 3.66193 10.5 4.80653 10.5 6Z" stroke="#4B565E" stroke-linecap="round" stroke-linejoin="round"/>
<path d="M6 7.5C6.82843 7.5 7.5 6.82843 7.5 6C7.5 5.17157 6.82843 4.5 6 4.5C5.17157 4.5 4.5 5.17157 4.5 6C4.5 6.82843 5.17157 7.5 6 7.5Z" fill="#4B565E" stroke="#4B565E" stroke-linecap="round" stroke-linejoin="round"/>
<path d="M17.1186 1.81818H18.983L22.2244 9.73295H22.3438L25.5852 1.81818H27.4496V12H25.9879V4.6321H25.8935L22.8906 11.9851H21.6776L18.6747 4.62713H18.5803V12H17.1186V1.81818ZM32.7804 12.1541C32.0645 12.1541 31.4397 11.9901 30.9061 11.6619C30.3725 11.3338 29.9582 10.8748 29.6632 10.2848C29.3682 9.69484 29.2207 9.00544 29.2207 8.21662C29.2207 7.42448 29.3682 6.73177 29.6632 6.13849C29.9582 5.54522 30.3725 5.08452 30.9061 4.75639C31.4397 4.42827 32.0645 4.2642 32.7804 4.2642C33.4963 4.2642 34.121 4.42827 34.6547 4.75639C35.1883 5.08452 35.6026 5.54522 35.8975 6.13849C36.1925 6.73177 36.34 7.42448 36.34 8.21662C36.34 9.00544 36.1925 9.69484 35.8975 10.2848C35.6026 10.8748 35.1883 11.3338 34.6547 11.6619C34.121 11.9901 33.4963 12.1541 32.7804 12.1541ZM32.7853 10.9062C33.2493 10.9062 33.6338 10.7836 33.9387 10.5384C34.2437 10.2931 34.469 9.96662 34.6149 9.55895C34.764 9.15128 34.8386 8.70218 34.8386 8.21165C34.8386 7.72443 34.764 7.27699 34.6149 6.86932C34.469 6.45833 34.2437 6.12855 33.9387 5.87997C33.6338 5.63139 33.2493 5.5071 32.7853 5.5071C32.318 5.5071 31.9302 5.63139 31.622 5.87997C31.3171 6.12855 31.09 6.45833 30.9409 6.86932C30.795 7.27699 30.7221 7.72443 30.7221 8.21165C30.7221 8.70218 30.795 9.15128 30.9409 9.55895C31.09 9.96662 31.3171 10.2931 31.622 10.5384C31.9302 10.7836 32.318 10.9062 32.7853 10.9062ZM41.2159 12.1541C40.4768 12.1541 39.8404 11.9867 39.3068 11.652C38.7765 11.3139 38.3688 10.8482 38.0838 10.255C37.7988 9.66169 37.6562 8.98224 37.6562 8.21662C37.6562 7.44105 37.8021 6.75663 38.0938 6.16335C38.3854 5.56676 38.7964 5.10109 39.3267 4.76633C39.857 4.43158 40.4818 4.2642 41.201 4.2642C41.781 4.2642 42.2981 4.37192 42.7521 4.58736C43.2062 4.79948 43.5724 5.09777 43.8509 5.48224C44.1326 5.86671 44.3 6.31581 44.353 6.82955H42.9062C42.8267 6.47159 42.6444 6.16335 42.3594 5.90483C42.0777 5.64631 41.6998 5.51705 41.2259 5.51705C40.8116 5.51705 40.4486 5.62642 40.1371 5.84517C39.8288 6.06061 39.5885 6.36884 39.4162 6.76989C39.2438 7.16761 39.1577 7.63826 39.1577 8.18182C39.1577 8.73864 39.2422 9.21922 39.4112 9.62358C39.5803 10.0279 39.8189 10.3411 40.1271 10.5632C40.4387 10.7853 40.8049 10.8963 41.2259 10.8963C41.5076 10.8963 41.7628 10.8449 41.9915 10.7422C42.2235 10.6361 42.4174 10.4853 42.5732 10.2898C42.7322 10.0942 42.8433 9.8589 42.9062 9.58381H44.353C44.3 10.0777 44.1392 10.5185 43.8707 10.9062C43.6023 11.294 43.2427 11.599 42.7919 11.821C42.3445 12.0431 41.8191 12.1541 41.2159 12.1541ZM45.9426 12V4.36364H47.4292V7.56534H48.1451L50.6657 4.36364H52.5051L49.5471 8.07741L52.54 12H50.6955L48.3936 8.94744H47.4292V12H45.9426ZM53.6946 12V4.36364H56.8615C57.7232 4.36364 58.406 4.54759 58.9098 4.91548C59.4136 5.28007 59.6655 5.77557 59.6655 6.40199C59.6655 6.84943 59.523 7.20407 59.2379 7.46591C58.9529 7.72775 58.575 7.90341 58.1044 7.9929C58.4458 8.03267 58.759 8.13542 59.044 8.30114C59.3291 8.46354 59.5578 8.68229 59.7301 8.95739C59.9058 9.23248 59.9936 9.56061 59.9936 9.94176C59.9936 10.3461 59.8892 10.7041 59.6804 11.0156C59.4716 11.3239 59.1683 11.5658 58.7706 11.7415C58.3762 11.9138 57.9006 12 57.3438 12H53.6946ZM55.0916 10.7571H57.3438C57.7116 10.7571 58 10.6693 58.2088 10.4936C58.4176 10.3179 58.522 10.0793 58.522 9.7777C58.522 9.42306 58.4176 9.14465 58.2088 8.94247C58 8.73698 57.7116 8.63423 57.3438 8.63423H55.0916V10.7571ZM55.0916 7.54545H56.8764C57.1548 7.54545 57.3935 7.50568 57.5923 7.42614C57.7945 7.34659 57.9486 7.2339 58.0547 7.08807C58.1641 6.93892 58.2188 6.76326 58.2188 6.56108C58.2188 6.2661 58.0978 6.03575 57.8558 5.87003C57.6139 5.70431 57.2824 5.62145 56.8615 5.62145H55.0916V7.54545ZM63.8466 12.169C63.3627 12.169 62.9252 12.0795 62.5341 11.9006C62.143 11.7183 61.8331 11.4548 61.6044 11.1101C61.379 10.7654 61.2663 10.3428 61.2663 9.84233C61.2663 9.41146 61.3492 9.05682 61.5149 8.77841C61.6806 8.5 61.9044 8.27959 62.1861 8.11719C62.4678 7.95478 62.7827 7.83215 63.1307 7.74929C63.4787 7.66643 63.8333 7.60346 64.1946 7.56037C64.652 7.50734 65.0232 7.46425 65.3082 7.43111C65.5933 7.39465 65.8004 7.33665 65.9297 7.2571C66.0589 7.17756 66.1236 7.0483 66.1236 6.86932V6.83452C66.1236 6.40033 66.0009 6.06392 65.7557 5.82528C65.5137 5.58665 65.1525 5.46733 64.6719 5.46733C64.1714 5.46733 63.777 5.57836 63.4886 5.80043C63.2036 6.01918 63.0064 6.26278 62.897 6.53125L61.5 6.21307C61.6657 5.74905 61.9077 5.37453 62.2259 5.08949C62.5473 4.80114 62.9169 4.59233 63.3345 4.46307C63.7521 4.33049 64.1913 4.2642 64.652 4.2642C64.9569 4.2642 65.2801 4.30066 65.6214 4.37358C65.9661 4.44318 66.2876 4.57244 66.5859 4.76136C66.8875 4.95028 67.1345 5.22041 67.3267 5.57173C67.5189 5.91974 67.6151 6.37216 67.6151 6.92898V12H66.1634V10.956H66.1037C66.0076 11.1482 65.8634 11.3371 65.6712 11.5227C65.4789 11.7083 65.232 11.8625 64.9304 11.9851C64.6288 12.1077 64.2675 12.169 63.8466 12.169ZM64.1697 10.9759C64.5807 10.9759 64.9321 10.8946 65.2237 10.7322C65.5187 10.5698 65.7424 10.3577 65.8949 10.0959C66.0507 9.83073 66.1286 9.54735 66.1286 9.24574V8.26136C66.0755 8.31439 65.9728 8.36411 65.8203 8.41051C65.6712 8.4536 65.5005 8.49171 65.3082 8.52486C65.116 8.55469 64.9287 8.58286 64.7464 8.60938C64.5642 8.63258 64.4117 8.65246 64.2891 8.66903C64.0007 8.70549 63.7372 8.76681 63.4986 8.85298C63.2633 8.93916 63.0743 9.06345 62.9318 9.22585C62.7926 9.38494 62.723 9.59706 62.723 9.86222C62.723 10.2301 62.8589 10.5085 63.1307 10.6974C63.4025 10.883 63.7488 10.9759 64.1697 10.9759Z" fill="white"/>
</svg>
