<svg width="46" height="16" viewBox="0 0 46 16" fill="none" xmlns="http://www.w3.org/2000/svg">
<path d="M9.375 0.863636V12.5H7.625V2.36364H2.14773V12.5H0.397727V0.863636H9.375ZM12.9972 15.7727C12.7434 15.7727 12.5123 15.7519 12.304 15.7102C12.0956 15.6723 11.9403 15.6307 11.8381 15.5852L12.2472 14.1932C12.5578 14.2765 12.8343 14.3125 13.0767 14.3011C13.3191 14.2898 13.5331 14.1989 13.7188 14.0284C13.9081 13.858 14.0748 13.5795 14.2188 13.1932L14.429 12.6136L11.2358 3.77273H13.054L15.2642 10.5455H15.3551L17.5653 3.77273H19.3892L15.7926 13.6648C15.6259 14.1193 15.4138 14.5038 15.1562 14.8182C14.8987 15.1364 14.5919 15.375 14.2358 15.5341C13.8797 15.6932 13.4669 15.7727 12.9972 15.7727ZM24.3651 12.6761C23.5204 12.6761 22.7931 12.4848 22.1832 12.1023C21.5772 11.7159 21.1113 11.1837 20.7855 10.5057C20.4598 9.82765 20.2969 9.05114 20.2969 8.17614C20.2969 7.28977 20.4635 6.50758 20.7969 5.82955C21.1302 5.14773 21.5999 4.61553 22.206 4.23295C22.812 3.85038 23.526 3.65909 24.348 3.65909C25.0109 3.65909 25.6018 3.7822 26.1207 4.02841C26.6397 4.27083 27.0582 4.61174 27.3764 5.05114C27.6984 5.49053 27.8897 6.00379 27.9503 6.59091H26.2969C26.206 6.18182 25.9976 5.82955 25.6719 5.53409C25.3499 5.23864 24.9181 5.09091 24.3764 5.09091C23.9029 5.09091 23.4882 5.21591 23.1321 5.46591C22.7798 5.71212 22.5052 6.06439 22.3082 6.52273C22.1113 6.97727 22.0128 7.51515 22.0128 8.13636C22.0128 8.77273 22.1094 9.32197 22.3026 9.78409C22.4957 10.2462 22.7685 10.6042 23.1207 10.858C23.4768 11.1117 23.8954 11.2386 24.3764 11.2386C24.6984 11.2386 24.9901 11.1799 25.2514 11.0625C25.5166 10.9413 25.7382 10.7689 25.9162 10.5455C26.098 10.322 26.2249 10.053 26.2969 9.73864H27.9503C27.8897 10.303 27.706 10.8068 27.3991 11.25C27.0923 11.6932 26.6813 12.0417 26.1662 12.2955C25.6548 12.5492 25.0545 12.6761 24.3651 12.6761ZM29.1065 5.23864V3.77273H36.4702V5.23864H33.6236V12.5H31.9645V5.23864H29.1065ZM41.5369 12.6761C40.7188 12.6761 40.0047 12.4886 39.3949 12.1136C38.785 11.7386 38.3116 11.214 37.9744 10.5398C37.6373 9.86553 37.4688 9.07765 37.4688 8.17614C37.4688 7.27083 37.6373 6.47917 37.9744 5.80114C38.3116 5.12311 38.785 4.59659 39.3949 4.22159C40.0047 3.84659 40.7188 3.65909 41.5369 3.65909C42.3551 3.65909 43.0691 3.84659 43.679 4.22159C44.2888 4.59659 44.7623 5.12311 45.0994 5.80114C45.4366 6.47917 45.6051 7.27083 45.6051 8.17614C45.6051 9.07765 45.4366 9.86553 45.0994 10.5398C44.7623 11.214 44.2888 11.7386 43.679 12.1136C43.0691 12.4886 42.3551 12.6761 41.5369 12.6761ZM41.5426 11.25C42.0729 11.25 42.5123 11.1098 42.8608 10.8295C43.2093 10.5492 43.4669 10.1761 43.6335 9.71023C43.804 9.24432 43.8892 8.73106 43.8892 8.17045C43.8892 7.61364 43.804 7.10227 43.6335 6.63636C43.4669 6.16667 43.2093 5.78977 42.8608 5.50568C42.5123 5.22159 42.0729 5.07955 41.5426 5.07955C41.0085 5.07955 40.5653 5.22159 40.2131 5.50568C39.8646 5.78977 39.6051 6.16667 39.4347 6.63636C39.268 7.10227 39.1847 7.61364 39.1847 8.17045C39.1847 8.73106 39.268 9.24432 39.4347 9.71023C39.6051 10.1761 39.8646 10.5492 40.2131 10.8295C40.5653 11.1098 41.0085 11.25 41.5426 11.25Z" fill="#F9FAFB"/>
</svg>
